<svg id="Layer_1" data-name="Layer 1" xmlns="http://www.w3.org/2000/svg" viewBox="0 0 122.88 114.82"><defs><style>.cls-1{fill-rule:evenodd;}</style></defs><title>home-office</title><path class="cls-1" d="M53.76,78,53.6,87.7H63.76a3.92,3.92,0,0,1,3.91,3.91v3.91h0v14.35a3.92,3.92,0,0,1-3.91,3.91H59.81V96.64c0-1.71-.65-1.12-2.59-1.12H48.49v0h-5a5.9,5.9,0,0,1-5.88-5.89V69.2a6,6,0,0,1,6-6h3c6.17,0,5.18,4.24,7.91,6.91s2,2.94,5.69,2.94h7.93c6.57,0,3,6.38-.85,6.18H60c-3.24,0-3.52.52-6.19-1.26ZM11.51,114.8V54.13a9.26,9.26,0,0,1-6.35.3A7.52,7.52,0,0,1,1.66,52,7.69,7.69,0,0,1,.05,48a10,10,0,0,1,2.4-7.36h0a2.19,2.19,0,0,1,.34-.34L59.85.55a2.09,2.09,0,0,1,2.7-.11l57.18,39.7h0a1.79,1.79,0,0,1,.25.23c2.65,2.85,3.31,6,2.67,8.67a8.09,8.09,0,0,1-1.82,3.48,7.88,7.88,0,0,1-3.24,2.19,8.75,8.75,0,0,1-6.79-.44v60.41h-5.6V51.81c0-1-39.22-27.25-43.55-30.62C57.06,24.68,17.11,50.67,17.11,52v62.85l-5.6,0ZM93.75,3.55l17.17.7V27.44L93.75,16.11V3.55ZM73.83,79.24a1.67,1.67,0,0,1,0-3.34H85.46l5.92-12a1.66,1.66,0,1,1,3,1.46L88.05,78.16a1.67,1.67,0,0,1-1.56,1.08ZM59.09,80.51H92.3a.35.35,0,0,1,.35.35v5a.35.35,0,0,1-.35.35H90.73v28.17a.47.47,0,0,1-.46.46h-4a.47.47,0,0,1-.46-.46V86.19H59.09a.35.35,0,0,1-.35-.35v-5a.35.35,0,0,1,.35-.35ZM33.23,110.12a1.11,1.11,0,0,1,.32-.66,14.49,14.49,0,0,1,5-3.24,17,17,0,0,1,4.4-1l-.29-3.71H32.06a2,2,0,0,1-2-2c0-8.33,2-14.59,0-24.07-.58-2.81,5.22-3.22,5.22.15V96.87H55.34c1.11,0,2,1.48,2,2.58V101a.44.44,0,0,1-.44.44H46.26l-.41,3.66a16.94,16.94,0,0,1,4.67,1A14.7,14.7,0,0,1,55.4,109a1.14,1.14,0,0,1,.33,1.13,1.82,1.82,0,0,1,.86,1.72,2.14,2.14,0,0,1-4.27,0,1.84,1.84,0,0,1,.87-1.73,12.86,12.86,0,0,0-3.44-1.89,14.79,14.79,0,0,0-4.49-.86L45,109.69v.1a2.06,2.06,0,0,1,1.57,2.07,2.14,2.14,0,0,1-4.28,0,2.05,2.05,0,0,1,1.55-2.06v-.11l-.16-2.28a14.38,14.38,0,0,0-4.28.94h0a12.66,12.66,0,0,0-3.42,2,1.71,1.71,0,0,1,.64,1.53A2.34,2.34,0,0,1,34.47,114a2.3,2.3,0,0,1-2.13-2.13,1.85,1.85,0,0,1,.89-1.74ZM50.35,45.88a8.19,8.19,0,1,1-8.18,8.19,8.19,8.19,0,0,1,8.18-8.19Z"/></svg>